<svg class="main-svg" xmlns="http://www.w3.org/2000/svg" xmlns:xlink="http://www.w3.org/1999/xlink" width="700" height="500" viewBox="0 0 700 500"><rect x="0" y="0" width="700" height="500" style="fill: rgb(255, 255, 255); fill-opacity: 1;"/><defs id="defs-16f57e"><g class="clips"><clipPath id="clip16f57exyplot" class="plotclip"><rect width="540" height="320"/></clipPath><clipPath class="axesclip" id="clip16f57ex"><rect x="80" y="0" width="540" height="500"/></clipPath><clipPath class="axesclip" id="clip16f57ey"><rect x="0" y="100" width="700" height="320"/></clipPath><clipPath class="axesclip" id="clip16f57exy"><rect x="80" y="100" width="540" height="320"/></clipPath></g><g class="gradients"/></defs><g class="bglayer"><rect class="bg" x="80" y="100" width="540" height="320" style="fill: rgb(229, 236, 246); fill-opacity: 1; stroke-width: 0;"/></g><g class="layer-below"><g class="imagelayer"/><g class="shapelayer"/></g><g class="cartesianlayer"><g class="subplot xy"><g class="layer-subplot"><g class="shapelayer"/><g class="imagelayer"/></g><g class="gridlayer"><g class="x"><path class="xgrid crisp" transform="translate(212.26,0)" d="M0,100v320" style="stroke: rgb(255, 255, 255); stroke-opacity: 1; stroke-width: 1px;"/><path class="xgrid crisp" transform="translate(304.66999999999996,0)" d="M0,100v320" style="stroke: rgb(255, 255, 255); stroke-opacity: 1; stroke-width: 1px;"/><path class="xgrid crisp" transform="translate(397.08,0)" d="M0,100v320" style="stroke: rgb(255, 255, 255); stroke-opacity: 1; stroke-width: 1px;"/><path class="xgrid crisp" transform="translate(489.49,0)" d="M0,100v320" style="stroke: rgb(255, 255, 255); stroke-opacity: 1; stroke-width: 1px;"/><path class="xgrid crisp" transform="translate(581.9,0)" d="M0,100v320" style="stroke: rgb(255, 255, 255); stroke-opacity: 1; stroke-width: 1px;"/></g><g class="y"><path class="ygrid crisp" transform="translate(0,342.22)" d="M80,0h540" style="stroke: rgb(255, 255, 255); stroke-opacity: 1; stroke-width: 1px;"/><path class="ygrid crisp" transform="translate(0,287.28)" d="M80,0h540" style="stroke: rgb(255, 255, 255); stroke-opacity: 1; stroke-width: 1px;"/><path class="ygrid crisp" transform="translate(0,232.33)" d="M80,0h540" style="stroke: rgb(255, 255, 255); stroke-opacity: 1; stroke-width: 1px;"/><path class="ygrid crisp" transform="translate(0,177.39)" d="M80,0h540" style="stroke: rgb(255, 255, 255); stroke-opacity: 1; stroke-width: 1px;"/><path class="ygrid crisp" transform="translate(0,122.44)" d="M80,0h540" style="stroke: rgb(255, 255, 255); stroke-opacity: 1; stroke-width: 1px;"/></g></g><g class="zerolinelayer"><path class="xzl zl crisp" transform="translate(119.85,0)" d="M0,100v320" style="stroke: rgb(255, 255, 255); stroke-opacity: 1; stroke-width: 2px;"/><path class="yzl zl crisp" transform="translate(0,397.17)" d="M80,0h540" style="stroke: rgb(255, 255, 255); stroke-opacity: 1; stroke-width: 2px;"/></g><path class="xlines-below"/><path class="ylines-below"/><g class="overlines-below"/><g class="xaxislayer-below"/><g class="yaxislayer-below"/><g class="overaxes-below"/><g class="plot" transform="translate(80, 100)" clip-path="url('#clip16f57exyplot')"><g class="scatterlayer mlayer"><g class="trace scatter traced03e9a" style="stroke-miterlimit: 2; opacity: 1;"><g class="fills"/><g class="errorbars"/><g class="lines"/><g class="points"><path class="point" transform="translate(232.54,207.43)" d="M12.18,0A12.18,12.18 0 1,1 0,-12.18A12.18,12.18 0 0,1 12.18,0Z" style="opacity: 0.6; stroke-width: 1px; fill: rgb(231, 228, 39); fill-opacity: 1; stroke: rgb(255, 255, 255); stroke-opacity: 1;"/><path class="point" transform="translate(372.68,152.37)" d="M13.12,0A13.12,13.12 0 1,1 0,-13.12A13.12,13.12 0 0,1 13.12,0Z" style="opacity: 0.6; stroke-width: 1px; fill: rgb(33, 160, 135); fill-opacity: 1; stroke: rgb(255, 255, 255); stroke-opacity: 1;"/><path class="point" transform="translate(39.91,53.78)" d="M10.33,0A10.33,10.33 0 1,1 0,-10.33A10.33,10.33 0 0,1 10.33,0Z" style="opacity: 0.6; stroke-width: 1px; fill: rgb(209, 225, 41); fill-opacity: 1; stroke: rgb(255, 255, 255); stroke-opacity: 1;"/><path class="point" transform="translate(179.55,199.02)" d="M8.54,0A8.54,8.54 0 1,1 0,-8.54A8.54,8.54 0 0,1 8.54,0Z" style="opacity: 0.6; stroke-width: 1px; fill: rgb(50, 180, 123); fill-opacity: 1; stroke: rgb(255, 255, 255); stroke-opacity: 1;"/><path class="point" transform="translate(107.66,47.57)" d="M2.41,0A2.41,2.41 0 1,1 0,-2.41A2.41,2.41 0 0,1 2.41,0Z" style="opacity: 0.6; stroke-width: 1px; fill: rgb(43, 119, 142); fill-opacity: 1; stroke: rgb(255, 255, 255); stroke-opacity: 1;"/><path class="point" transform="translate(82.52,125.91)" d="M7,0A7,7 0 1,1 0,-7A7,7 0 0,1 7,0Z" style="opacity: 0.6; stroke-width: 1px; fill: rgb(35, 143, 140); fill-opacity: 1; stroke: rgb(255, 255, 255); stroke-opacity: 1;"/><path class="point" transform="translate(125.92,292.82)" d="M5.18,0A5.18,5.18 0 1,1 0,-5.18A5.18,5.18 0 0,1 5.18,0Z" style="opacity: 0.6; stroke-width: 1px; fill: rgb(43, 171, 128); fill-opacity: 1; stroke: rgb(255, 255, 255); stroke-opacity: 1;"/><path class="point" transform="translate(199.52,41.83)" d="M3.38,0A3.38,3.38 0 1,1 0,-3.38A3.38,3.38 0 0,1 3.38,0Z" style="opacity: 0.6; stroke-width: 1px; fill: rgb(32, 159, 137); fill-opacity: 1; stroke: rgb(255, 255, 255); stroke-opacity: 1;"/><path class="point" transform="translate(223.18,107.36)" d="M8.89,0A8.89,8.89 0 1,1 0,-8.89A8.89,8.89 0 0,1 8.89,0Z" style="opacity: 0.6; stroke-width: 1px; fill: rgb(216, 226, 40); fill-opacity: 1; stroke: rgb(255, 255, 255); stroke-opacity: 1;"/><path class="point" transform="translate(288.81,23.18)" d="M4.68,0A4.68,4.68 0 1,1 0,-4.68A4.68,4.68 0 0,1 4.68,0Z" style="opacity: 0.6; stroke-width: 1px; fill: rgb(211, 226, 41); fill-opacity: 1; stroke: rgb(255, 255, 255); stroke-opacity: 1;"/><path class="point" transform="translate(233.54,249.82)" d="M13.74,0A13.74,13.74 0 1,1 0,-13.74A13.74,13.74 0 0,1 13.74,0Z" style="opacity: 0.6; stroke-width: 1px; fill: rgb(42, 120, 142); fill-opacity: 1; stroke: rgb(255, 255, 255); stroke-opacity: 1;"/><path class="point" transform="translate(356.46,259.49)" d="M13.64,0A13.64,13.64 0 1,1 0,-13.64A13.64,13.64 0 0,1 13.64,0Z" style="opacity: 0.6; stroke-width: 1px; fill: rgb(240, 229, 38); fill-opacity: 1; stroke: rgb(255, 255, 255); stroke-opacity: 1;"/><path class="point" transform="translate(134.32,40.96)" d="M3.86,0A3.86,3.86 0 1,1 0,-3.86A3.86,3.86 0 0,1 3.86,0Z" style="opacity: 0.6; stroke-width: 1px; fill: rgb(66, 59, 130); fill-opacity: 1; stroke: rgb(255, 255, 255); stroke-opacity: 1;"/><path class="point" transform="translate(445.58,105.73)" d="M1.66,0A1.66,1.66 0 1,1 0,-1.66A1.66,1.66 0 0,1 1.66,0Z" style="opacity: 0.6; stroke-width: 1px; fill: rgb(70, 45, 123); fill-opacity: 1; stroke: rgb(255, 255, 255); stroke-opacity: 1;"/><path class="point" transform="translate(52.51,279.04)" d="M2.89,0A2.89,2.89 0 1,1 0,-2.89A2.89,2.89 0 0,1 2.89,0Z" style="opacity: 0.6; stroke-width: 1px; fill: rgb(70, 48, 124); fill-opacity: 1; stroke: rgb(255, 255, 255); stroke-opacity: 1;"/><path class="point" transform="translate(349.64,89.62)" d="M7.49,0A7.49,7.49 0 1,1 0,-7.49A7.49,7.49 0 0,1 7.49,0Z" style="opacity: 0.6; stroke-width: 1px; fill: rgb(34, 148, 139); fill-opacity: 1; stroke: rgb(255, 255, 255); stroke-opacity: 1;"/><path class="point" transform="translate(232.67,90.06)" d="M10.93,0A10.93,10.93 0 1,1 0,-10.93A10.93,10.93 0 0,1 10.93,0Z" style="opacity: 0.6; stroke-width: 1px; fill: rgb(69, 9, 91); fill-opacity: 1; stroke: rgb(255, 255, 255); stroke-opacity: 1;"/><path class="point" transform="translate(297.99,43.59)" d="M3.12,0A3.12,3.12 0 1,1 0,-3.12A3.12,3.12 0 0,1 3.12,0Z" style="opacity: 0.6; stroke-width: 1px; fill: rgb(230, 228, 39); fill-opacity: 1; stroke: rgb(255, 255, 255); stroke-opacity: 1;"/><path class="point" transform="translate(104.72,101.69)" d="M3.72,0A3.72,3.72 0 1,1 0,-3.72A3.72,3.72 0 0,1 3.72,0Z" style="opacity: 0.6; stroke-width: 1px; fill: rgb(151, 215, 62); fill-opacity: 1; stroke: rgb(255, 255, 255); stroke-opacity: 1;"/><path class="point" transform="translate(131.39,263.03)" d="M12.78,0A12.78,12.78 0 1,1 0,-12.78A12.78,12.78 0 0,1 12.78,0Z" style="opacity: 0.6; stroke-width: 1px; fill: rgb(69, 6, 89); fill-opacity: 1; stroke: rgb(255, 255, 255); stroke-opacity: 1;"/><path class="point" transform="translate(409.83,291.71)" d="M6.24,0A6.24,6.24 0 1,1 0,-6.24A6.24,6.24 0 0,1 6.24,0Z" style="opacity: 0.6; stroke-width: 1px; fill: rgb(66, 60, 130); fill-opacity: 1; stroke: rgb(255, 255, 255); stroke-opacity: 1;"/><path class="point" transform="translate(487.23,289.97)" d="M9.25,0A9.25,9.25 0 1,1 0,-9.25A9.25,9.25 0 0,1 9.25,0Z" style="opacity: 0.6; stroke-width: 1px; fill: rgb(49, 105, 142); fill-opacity: 1; stroke: rgb(255, 255, 255); stroke-opacity: 1;"/><path class="point" transform="translate(184.67,289.39)" d="M3.5,0A3.5,3.5 0 1,1 0,-3.5A3.5,3.5 0 0,1 3.5,0Z" style="opacity: 0.6; stroke-width: 1px; fill: rgb(70, 46, 123); fill-opacity: 1; stroke: rgb(255, 255, 255); stroke-opacity: 1;"/><path class="point" transform="translate(359.74,229.53)" d="M1.53,0A1.53,1.53 0 1,1 0,-1.53A1.53,1.53 0 0,1 1.53,0Z" style="opacity: 0.6; stroke-width: 1px; fill: rgb(139, 213, 69); fill-opacity: 1; stroke: rgb(255, 255, 255); stroke-opacity: 1;"/><path class="point" transform="translate(444.78,60.89)" d="M7.74,0A7.74,7.74 0 1,1 0,-7.74A7.74,7.74 0 0,1 7.74,0Z" style="opacity: 0.6; stroke-width: 1px; fill: rgb(47, 108, 142); fill-opacity: 1; stroke: rgb(255, 255, 255); stroke-opacity: 1;"/><path class="point" transform="translate(453.2,149.14)" d="M7.16,0A7.16,7.16 0 1,1 0,-7.16A7.16,7.16 0 0,1 7.16,0Z" style="opacity: 0.6; stroke-width: 1px; fill: rgb(225, 227, 39); fill-opacity: 1; stroke: rgb(255, 255, 255); stroke-opacity: 1;"/><path class="point" transform="translate(79.15,145.29)" d="M2.29,0A2.29,2.29 0 1,1 0,-2.29A2.29,2.29 0 0,1 2.29,0Z" style="opacity: 0.6; stroke-width: 1px; fill: rgb(38, 166, 132); fill-opacity: 1; stroke: rgb(255, 255, 255); stroke-opacity: 1;"/><path class="point" transform="translate(57.9,65.84)" d="M9.33,0A9.33,9.33 0 1,1 0,-9.33A9.33,9.33 0 0,1 9.33,0Z" style="opacity: 0.6; stroke-width: 1px; fill: rgb(184, 222, 43); fill-opacity: 1; stroke: rgb(255, 255, 255); stroke-opacity: 1;"/><path class="point" transform="translate(118.32,263.05)" d="M8.16,0A8.16,8.16 0 1,1 0,-8.16A8.16,8.16 0 0,1 8.16,0Z" style="opacity: 0.6; stroke-width: 1px; fill: rgb(162, 218, 55); fill-opacity: 1; stroke: rgb(255, 255, 255); stroke-opacity: 1;"/><path class="point" transform="translate(445.59,220.47)" d="M9.81,0A9.81,9.81 0 1,1 0,-9.81A9.81,9.81 0 0,1 9.81,0Z" style="opacity: 0.6; stroke-width: 1px; fill: rgb(202, 225, 41); fill-opacity: 1; stroke: rgb(255, 255, 255); stroke-opacity: 1;"/><path class="point" transform="translate(85.3,136.24)" d="M2.17,0A2.17,2.17 0 1,1 0,-2.17A2.17,2.17 0 0,1 2.17,0Z" style="opacity: 0.6; stroke-width: 1px; fill: rgb(37, 136, 141); fill-opacity: 1; stroke: rgb(255, 255, 255); stroke-opacity: 1;"/><path class="point" transform="translate(234.42,30.79)" d="M11.27,0A11.27,11.27 0 1,1 0,-11.27A11.27,11.27 0 0,1 11.27,0Z" style="opacity: 0.6; stroke-width: 1px; fill: rgb(31, 158, 137); fill-opacity: 1; stroke: rgb(255, 255, 255); stroke-opacity: 1;"/><path class="point" transform="translate(482.44,143.04)" d="M3.33,0A3.33,3.33 0 1,1 0,-3.33A3.33,3.33 0 0,1 3.33,0Z" style="opacity: 0.6; stroke-width: 1px; fill: rgb(132, 211, 74); fill-opacity: 1; stroke: rgb(255, 255, 255); stroke-opacity: 1;"/><path class="point" transform="translate(286.2,292.04)" d="M7.79,0A7.79,7.79 0 1,1 0,-7.79A7.79,7.79 0 0,1 7.79,0Z" style="opacity: 0.6; stroke-width: 1px; fill: rgb(54, 92, 140); fill-opacity: 1; stroke: rgb(255, 255, 255); stroke-opacity: 1;"/><path class="point" transform="translate(359.53,77.21)" d="M11.78,0A11.78,11.78 0 1,1 0,-11.78A11.78,11.78 0 0,1 11.78,0Z" style="opacity: 0.6; stroke-width: 1px; fill: rgb(35, 144, 140); fill-opacity: 1; stroke: rgb(255, 255, 255); stroke-opacity: 1;"/><path class="point" transform="translate(185.64,233.16)" d="M0.33,0A0.33,0.33 0 1,1 0,-0.33A0.33,0.33 0 0,1 0.33,0Z" style="opacity: 0.6; stroke-width: 1px; fill: rgb(42, 170, 129); fill-opacity: 1; stroke: rgb(255, 255, 255); stroke-opacity: 1;"/><path class="point" transform="translate(357.05,75.43)" d="M4.87,0A4.87,4.87 0 1,1 0,-4.87A4.87,4.87 0 0,1 4.87,0Z" style="opacity: 0.6; stroke-width: 1px; fill: rgb(69, 6, 89); fill-opacity: 1; stroke: rgb(255, 255, 255); stroke-opacity: 1;"/><path class="point" transform="translate(425.49,190.61)" d="M13.09,0A13.09,13.09 0 1,1 0,-13.09A13.09,13.09 0 0,1 13.09,0Z" style="opacity: 0.6; stroke-width: 1px; fill: rgb(41, 169, 130); fill-opacity: 1; stroke: rgb(255, 255, 255); stroke-opacity: 1;"/><path class="point" transform="translate(48.3,59.93)" d="M12.67,0A12.67,12.67 0 1,1 0,-12.67A12.67,12.67 0 0,1 12.67,0Z" style="opacity: 0.6; stroke-width: 1px; fill: rgb(38, 129, 142); fill-opacity: 1; stroke: rgb(255, 255, 255); stroke-opacity: 1;"/><path class="point" transform="translate(386.45,91.91)" d="M8.08,0A8.08,8.08 0 1,1 0,-8.08A8.08,8.08 0 0,1 8.08,0Z" style="opacity: 0.6; stroke-width: 1px; fill: rgb(138, 212, 70); fill-opacity: 1; stroke: rgb(255, 255, 255); stroke-opacity: 1;"/><path class="point" transform="translate(496.75,144.35)" d="M13,0A13,13 0 1,1 0,-13A13,13 0 0,1 13,0Z" style="opacity: 0.6; stroke-width: 1px; fill: rgb(51, 100, 141); fill-opacity: 1; stroke: rgb(255, 255, 255); stroke-opacity: 1;"/><path class="point" transform="translate(385.54,259.68)" d="M14.25,0A14.25,14.25 0 1,1 0,-14.25A14.25,14.25 0 0,1 14.25,0Z" style="opacity: 0.6; stroke-width: 1px; fill: rgb(194, 224, 42); fill-opacity: 1; stroke: rgb(255, 255, 255); stroke-opacity: 1;"/><path class="point" transform="translate(169.43,280.71)" d="M12.4,0A12.4,12.4 0 1,1 0,-12.4A12.4,12.4 0 0,1 12.4,0Z" style="opacity: 0.6; stroke-width: 1px; fill: rgb(37, 165, 132); fill-opacity: 1; stroke: rgb(255, 255, 255); stroke-opacity: 1;"/><path class="point" transform="translate(404.54,263.83)" d="M12.81,0A12.81,12.81 0 1,1 0,-12.81A12.81,12.81 0 0,1 12.81,0Z" style="opacity: 0.6; stroke-width: 1px; fill: rgb(65, 63, 132); fill-opacity: 1; stroke: rgb(255, 255, 255); stroke-opacity: 1;"/><path class="point" transform="translate(87.55,284.93)" d="M1.48,0A1.48,1.48 0 1,1 0,-1.48A1.48,1.48 0 0,1 1.48,0Z" style="opacity: 0.6; stroke-width: 1px; fill: rgb(125, 209, 78); fill-opacity: 1; stroke: rgb(255, 255, 255); stroke-opacity: 1;"/><path class="point" transform="translate(246.8,267.64)" d="M9.77,0A9.77,9.77 0 1,1 0,-9.77A9.77,9.77 0 0,1 9.77,0Z" style="opacity: 0.6; stroke-width: 1px; fill: rgb(44, 173, 127); fill-opacity: 1; stroke: rgb(255, 255, 255); stroke-opacity: 1;"/><path class="point" transform="translate(459.66,235.16)" d="M10.55,0A10.55,10.55 0 1,1 0,-10.55A10.55,10.55 0 0,1 10.55,0Z" style="opacity: 0.6; stroke-width: 1px; fill: rgb(70, 20, 102); fill-opacity: 1; stroke: rgb(255, 255, 255); stroke-opacity: 1;"/><path class="point" transform="translate(175.52,101.29)" d="M9.15,0A9.15,9.15 0 1,1 0,-9.15A9.15,9.15 0 0,1 9.15,0Z" style="opacity: 0.6; stroke-width: 1px; fill: rgb(40, 126, 142); fill-opacity: 1; stroke: rgb(255, 255, 255); stroke-opacity: 1;"/><path class="point" transform="translate(172.82,143.4)" d="M11.99,0A11.99,11.99 0 1,1 0,-11.99A11.99,11.99 0 0,1 11.99,0Z" style="opacity: 0.6; stroke-width: 1px; fill: rgb(65, 188, 114); fill-opacity: 1; stroke: rgb(255, 255, 255); stroke-opacity: 1;"/><path class="point" transform="translate(99.93,293.72)" d="M0.52,0A0.52,0.52 0 1,1 0,-0.52A0.52,0.52 0 0,1 0.52,0Z" style="opacity: 0.6; stroke-width: 1px; fill: rgb(211, 226, 41); fill-opacity: 1; stroke: rgb(255, 255, 255); stroke-opacity: 1;"/><path class="point" transform="translate(48.8,277.39)" d="M11.55,0A11.55,11.55 0 1,1 0,-11.55A11.55,11.55 0 0,1 11.55,0Z" style="opacity: 0.6; stroke-width: 1px; fill: rgb(68, 1, 84); fill-opacity: 1; stroke: rgb(255, 255, 255); stroke-opacity: 1;"/><path class="point" transform="translate(353.51,31.43)" d="M10.98,0A10.98,10.98 0 1,1 0,-10.98A10.98,10.98 0 0,1 10.98,0Z" style="opacity: 0.6; stroke-width: 1px; fill: rgb(249, 231, 37); fill-opacity: 1; stroke: rgb(255, 255, 255); stroke-opacity: 1;"/><path class="point" transform="translate(137.64,141.09)" d="M3.9,0A3.9,3.9 0 1,1 0,-3.9A3.9,3.9 0 0,1 3.9,0Z" style="opacity: 0.6; stroke-width: 1px; fill: rgb(44, 116, 142); fill-opacity: 1; stroke: rgb(255, 255, 255); stroke-opacity: 1;"/><path class="point" transform="translate(162.55,241.32)" d="M3.86,0A3.86,3.86 0 1,1 0,-3.86A3.86,3.86 0 0,1 3.86,0Z" style="opacity: 0.6; stroke-width: 1px; fill: rgb(247, 230, 37); fill-opacity: 1; stroke: rgb(255, 255, 255); stroke-opacity: 1;"/><path class="point" transform="translate(266.98,227.85)" d="M9.48,0A9.48,9.48 0 1,1 0,-9.48A9.48,9.48 0 0,1 9.48,0Z" style="opacity: 0.6; stroke-width: 1px; fill: rgb(43, 171, 128); fill-opacity: 1; stroke: rgb(255, 255, 255); stroke-opacity: 1;"/><path class="point" transform="translate(64.51,92.82)" d="M5.18,0A5.18,5.18 0 1,1 0,-5.18A5.18,5.18 0 0,1 5.18,0Z" style="opacity: 0.6; stroke-width: 1px; fill: rgb(152, 215, 61); fill-opacity: 1; stroke: rgb(255, 255, 255); stroke-opacity: 1;"/><path class="point" transform="translate(305.12,243.48)" d="M11.95,0A11.95,11.95 0 1,1 0,-11.95A11.95,11.95 0 0,1 11.95,0Z" style="opacity: 0.6; stroke-width: 1px; fill: rgb(37, 165, 133); fill-opacity: 1; stroke: rgb(255, 255, 255); stroke-opacity: 1;"/><path class="point" transform="translate(107.65,137.45)" d="M6.69,0A6.69,6.69 0 1,1 0,-6.69A6.69,6.69 0 0,1 6.69,0Z" style="opacity: 0.6; stroke-width: 1px; fill: rgb(48, 177, 125); fill-opacity: 1; stroke: rgb(255, 255, 255); stroke-opacity: 1;"/><path class="point" transform="translate(312.14,30.68)" d="M11.74,0A11.74,11.74 0 1,1 0,-11.74A11.74,11.74 0 0,1 11.74,0Z" style="opacity: 0.6; stroke-width: 1px; fill: rgb(54, 92, 140); fill-opacity: 1; stroke: rgb(255, 255, 255); stroke-opacity: 1;"/><path class="point" transform="translate(363.17,64.52)" d="M14.86,0A14.86,14.86 0 1,1 0,-14.86A14.86,14.86 0 0,1 14.86,0Z" style="opacity: 0.6; stroke-width: 1px; fill: rgb(39, 167, 131); fill-opacity: 1; stroke: rgb(255, 255, 255); stroke-opacity: 1;"/><path class="point" transform="translate(87.14,231.27)" d="M4.5,0A4.5,4.5 0 1,1 0,-4.5A4.5,4.5 0 0,1 4.5,0Z" style="opacity: 0.6; stroke-width: 1px; fill: rgb(102, 203, 92); fill-opacity: 1; stroke: rgb(255, 255, 255); stroke-opacity: 1;"/><path class="point" transform="translate(231.17,161.52)" d="M2.15,0A2.15,2.15 0 1,1 0,-2.15A2.15,2.15 0 0,1 2.15,0Z" style="opacity: 0.6; stroke-width: 1px; fill: rgb(171, 220, 49); fill-opacity: 1; stroke: rgb(255, 255, 255); stroke-opacity: 1;"/><path class="point" transform="translate(360.7,126.85)" d="M13.52,0A13.52,13.52 0 1,1 0,-13.52A13.52,13.52 0 0,1 13.52,0Z" style="opacity: 0.6; stroke-width: 1px; fill: rgb(105, 204, 91); fill-opacity: 1; stroke: rgb(255, 255, 255); stroke-opacity: 1;"/><path class="point" transform="translate(231.22,69.42)" d="M8.12,0A8.12,8.12 0 1,1 0,-8.12A8.12,8.12 0 0,1 8.12,0Z" style="opacity: 0.6; stroke-width: 1px; fill: rgb(75, 192, 108); fill-opacity: 1; stroke: rgb(255, 255, 255); stroke-opacity: 1;"/><path class="point" transform="translate(62.94,254.09)" d="M14.62,0A14.62,14.62 0 1,1 0,-14.62A14.62,14.62 0 0,1 14.62,0Z" style="opacity: 0.6; stroke-width: 1px; fill: rgb(175, 221, 47); fill-opacity: 1; stroke: rgb(255, 255, 255); stroke-opacity: 1;"/><path class="point" transform="translate(287.46,292.06)" d="M9.55,0A9.55,9.55 0 1,1 0,-9.55A9.55,9.55 0 0,1 9.55,0Z" style="opacity: 0.6; stroke-width: 1px; fill: rgb(50, 103, 142); fill-opacity: 1; stroke: rgb(255, 255, 255); stroke-opacity: 1;"/><path class="point" transform="translate(346.56,277.93)" d="M14.91,0A14.91,14.91 0 1,1 0,-14.91A14.91,14.91 0 0,1 14.91,0Z" style="opacity: 0.6; stroke-width: 1px; fill: rgb(61, 186, 116); fill-opacity: 1; stroke: rgb(255, 255, 255); stroke-opacity: 1;"/><path class="point" transform="translate(277.76,163.56)" d="M8.19,0A8.19,8.19 0 1,1 0,-8.19A8.19,8.19 0 0,1 8.19,0Z" style="opacity: 0.6; stroke-width: 1px; fill: rgb(37, 134, 141); fill-opacity: 1; stroke: rgb(255, 255, 255); stroke-opacity: 1;"/><path class="point" transform="translate(476.3,130.59)" d="M7.9,0A7.9,7.9 0 1,1 0,-7.9A7.9,7.9 0 0,1 7.9,0Z" style="opacity: 0.6; stroke-width: 1px; fill: rgb(44, 117, 142); fill-opacity: 1; stroke: rgb(255, 255, 255); stroke-opacity: 1;"/><path class="point" transform="translate(310.87,140.89)" d="M2.03,0A2.03,2.03 0 1,1 0,-2.03A2.03,2.03 0 0,1 2.03,0Z" style="opacity: 0.6; stroke-width: 1px; fill: rgb(41, 124, 142); fill-opacity: 1; stroke: rgb(255, 255, 255); stroke-opacity: 1;"/><path class="point" transform="translate(457.27,209.98)" d="M5.34,0A5.34,5.34 0 1,1 0,-5.34A5.34,5.34 0 0,1 5.34,0Z" style="opacity: 0.6; stroke-width: 1px; fill: rgb(42, 122, 142); fill-opacity: 1; stroke: rgb(255, 255, 255); stroke-opacity: 1;"/><path class="point" transform="translate(103.37,25.57)" d="M0.39,0A0.39,0.39 0 1,1 0,-0.39A0.39,0.39 0 0,1 0.39,0Z" style="opacity: 0.6; stroke-width: 1px; fill: rgb(50, 101, 142); fill-opacity: 1; stroke: rgb(255, 255, 255); stroke-opacity: 1;"/><path class="point" transform="translate(104.21,137.9)" d="M2.41,0A2.41,2.41 0 1,1 0,-2.41A2.41,2.41 0 0,1 2.41,0Z" style="opacity: 0.6; stroke-width: 1px; fill: rgb(46, 175, 126); fill-opacity: 1; stroke: rgb(255, 255, 255); stroke-opacity: 1;"/><path class="point" transform="translate(412.9,192.73)" d="M11.18,0A11.18,11.18 0 1,1 0,-11.18A11.18,11.18 0 0,1 11.18,0Z" style="opacity: 0.6; stroke-width: 1px; fill: rgb(39, 128, 142); fill-opacity: 1; stroke: rgb(255, 255, 255); stroke-opacity: 1;"/><path class="point" transform="translate(223.6,145.81)" d="M0.46,0A0.46,0.46 0 1,1 0,-0.46A0.46,0.46 0 0,1 0.46,0Z" style="opacity: 0.6; stroke-width: 1px; fill: rgb(247, 230, 37); fill-opacity: 1; stroke: rgb(255, 255, 255); stroke-opacity: 1;"/><path class="point" transform="translate(116.26,92.4)" d="M5.5,0A5.5,5.5 0 1,1 0,-5.5A5.5,5.5 0 0,1 5.5,0Z" style="opacity: 0.6; stroke-width: 1px; fill: rgb(65, 188, 114); fill-opacity: 1; stroke: rgb(255, 255, 255); stroke-opacity: 1;"/><path class="point" transform="translate(468.4,113.31)" d="M12.94,0A12.94,12.94 0 1,1 0,-12.94A12.94,12.94 0 0,1 12.94,0Z" style="opacity: 0.6; stroke-width: 1px; fill: rgb(64, 67, 134); fill-opacity: 1; stroke: rgb(255, 255, 255); stroke-opacity: 1;"/><path class="point" transform="translate(200.54,224.39)" d="M10.39,0A10.39,10.39 0 1,1 0,-10.39A10.39,10.39 0 0,1 10.39,0Z" style="opacity: 0.6; stroke-width: 1px; fill: rgb(39, 128, 142); fill-opacity: 1; stroke: rgb(255, 255, 255); stroke-opacity: 1;"/><path class="point" transform="translate(386.76,278.94)" d="M10.36,0A10.36,10.36 0 1,1 0,-10.36A10.36,10.36 0 0,1 10.36,0Z" style="opacity: 0.6; stroke-width: 1px; fill: rgb(47, 108, 142); fill-opacity: 1; stroke: rgb(255, 255, 255); stroke-opacity: 1;"/><path class="point" transform="translate(375.3,195.49)" d="M2.83,0A2.83,2.83 0 1,1 0,-2.83A2.83,2.83 0 0,1 2.83,0Z" style="opacity: 0.6; stroke-width: 1px; fill: rgb(132, 211, 74); fill-opacity: 1; stroke: rgb(255, 255, 255); stroke-opacity: 1;"/><path class="point" transform="translate(447.98,124.17)" d="M6.63,0A6.63,6.63 0 1,1 0,-6.63A6.63,6.63 0 0,1 6.63,0Z" style="opacity: 0.6; stroke-width: 1px; fill: rgb(185, 223, 43); fill-opacity: 1; stroke: rgb(255, 255, 255); stroke-opacity: 1;"/><path class="point" transform="translate(328.02,239.43)" d="M8.72,0A8.72,8.72 0 1,1 0,-8.72A8.72,8.72 0 0,1 8.72,0Z" style="opacity: 0.6; stroke-width: 1px; fill: rgb(201, 224, 41); fill-opacity: 1; stroke: rgb(255, 255, 255); stroke-opacity: 1;"/><path class="point" transform="translate(386.82,90.36)" d="M14.85,0A14.85,14.85 0 1,1 0,-14.85A14.85,14.85 0 0,1 14.85,0Z" style="opacity: 0.6; stroke-width: 1px; fill: rgb(57, 185, 119); fill-opacity: 1; stroke: rgb(255, 255, 255); stroke-opacity: 1;"/><path class="point" transform="translate(201.06,278.89)" d="M3.06,0A3.06,3.06 0 1,1 0,-3.06A3.06,3.06 0 0,1 3.06,0Z" style="opacity: 0.6; stroke-width: 1px; fill: rgb(56, 88, 139); fill-opacity: 1; stroke: rgb(255, 255, 255); stroke-opacity: 1;"/><path class="point" transform="translate(164.57,225.65)" d="M3.72,0A3.72,3.72 0 1,1 0,-3.72A3.72,3.72 0 0,1 3.72,0Z" style="opacity: 0.6; stroke-width: 1px; fill: rgb(58, 83, 139); fill-opacity: 1; stroke: rgb(255, 255, 255); stroke-opacity: 1;"/><path class="point" transform="translate(453.79,76.08)" d="M3.93,0A3.93,3.93 0 1,1 0,-3.93A3.93,3.93 0 0,1 3.93,0Z" style="opacity: 0.6; stroke-width: 1px; fill: rgb(169, 219, 51); fill-opacity: 1; stroke: rgb(255, 255, 255); stroke-opacity: 1;"/><path class="point" transform="translate(237.65,244.03)" d="M11.25,0A11.25,11.25 0 1,1 0,-11.25A11.25,11.25 0 0,1 11.25,0Z" style="opacity: 0.6; stroke-width: 1px; fill: rgb(32, 153, 138); fill-opacity: 1; stroke: rgb(255, 255, 255); stroke-opacity: 1;"/><path class="point" transform="translate(485.65,121.49)" d="M6.85,0A6.85,6.85 0 1,1 0,-6.85A6.85,6.85 0 0,1 6.85,0Z" style="opacity: 0.6; stroke-width: 1px; fill: rgb(134, 212, 72); fill-opacity: 1; stroke: rgb(255, 255, 255); stroke-opacity: 1;"/><path class="point" transform="translate(346.39,153.03)" d="M0.85,0A0.85,0.85 0 1,1 0,-0.85A0.85,0.85 0 0,1 0.85,0Z" style="opacity: 0.6; stroke-width: 1px; fill: rgb(36, 164, 133); fill-opacity: 1; stroke: rgb(255, 255, 255); stroke-opacity: 1;"/><path class="point" transform="translate(327.1,43.1)" d="M7.63,0A7.63,7.63 0 1,1 0,-7.63A7.63,7.63 0 0,1 7.63,0Z" style="opacity: 0.6; stroke-width: 1px; fill: rgb(94, 199, 97); fill-opacity: 1; stroke: rgb(255, 255, 255); stroke-opacity: 1;"/><path class="point" transform="translate(92.87,224.83)" d="M3.18,0A3.18,3.18 0 1,1 0,-3.18A3.18,3.18 0 0,1 3.18,0Z" style="opacity: 0.6; stroke-width: 1px; fill: rgb(33, 151, 138); fill-opacity: 1; stroke: rgb(255, 255, 255); stroke-opacity: 1;"/><path class="point" transform="translate(478.56,279.05)" d="M11.98,0A11.98,11.98 0 1,1 0,-11.98A11.98,11.98 0 0,1 11.98,0Z" style="opacity: 0.6; stroke-width: 1px; fill: rgb(114, 207, 85); fill-opacity: 1; stroke: rgb(255, 255, 255); stroke-opacity: 1;"/><path class="point" transform="translate(247.73,95.22)" d="M4.46,0A4.46,4.46 0 1,1 0,-4.46A4.46,4.46 0 0,1 4.46,0Z" style="opacity: 0.6; stroke-width: 1px; fill: rgb(36, 163, 134); fill-opacity: 1; stroke: rgb(255, 255, 255); stroke-opacity: 1;"/><path class="point" transform="translate(307.1,85.03)" d="M0.41,0A0.41,0.41 0 1,1 0,-0.41A0.41,0.41 0 0,1 0.41,0Z" style="opacity: 0.6; stroke-width: 1px; fill: rgb(36, 137, 141); fill-opacity: 1; stroke: rgb(255, 255, 255); stroke-opacity: 1;"/><path class="point" transform="translate(228.43,47.77)" d="M8.9,0A8.9,8.9 0 1,1 0,-8.9A8.9,8.9 0 0,1 8.9,0Z" style="opacity: 0.6; stroke-width: 1px; fill: rgb(48, 108, 142); fill-opacity: 1; stroke: rgb(255, 255, 255); stroke-opacity: 1;"/><path class="point" transform="translate(149.37,41.13)" d="M12.66,0A12.66,12.66 0 1,1 0,-12.66A12.66,12.66 0 0,1 12.66,0Z" style="opacity: 0.6; stroke-width: 1px; fill: rgb(70, 25, 106); fill-opacity: 1; stroke: rgb(255, 255, 255); stroke-opacity: 1;"/><path class="point" transform="translate(457.25,293.33)" d="M5.72,0A5.72,5.72 0 1,1 0,-5.72A5.72,5.72 0 0,1 5.72,0Z" style="opacity: 0.6; stroke-width: 1px; fill: rgb(44, 116, 142); fill-opacity: 1; stroke: rgb(255, 255, 255); stroke-opacity: 1;"/><path class="point" transform="translate(304.92,232.78)" d="M11.25,0A11.25,11.25 0 1,1 0,-11.25A11.25,11.25 0 0,1 11.25,0Z" style="opacity: 0.6; stroke-width: 1px; fill: rgb(71, 29, 110); fill-opacity: 1; stroke: rgb(255, 255, 255); stroke-opacity: 1;"/><path class="point" transform="translate(41.18,127.72)" d="M7.67,0A7.67,7.67 0 1,1 0,-7.67A7.67,7.67 0 0,1 7.67,0Z" style="opacity: 0.6; stroke-width: 1px; fill: rgb(253, 231, 37); fill-opacity: 1; stroke: rgb(255, 255, 255); stroke-opacity: 1;"/><path class="point" transform="translate(325,36.45)" d="M8.11,0A8.11,8.11 0 1,1 0,-8.11A8.11,8.11 0 0,1 8.11,0Z" style="opacity: 0.6; stroke-width: 1px; fill: rgb(65, 62, 131); fill-opacity: 1; stroke: rgb(255, 255, 255); stroke-opacity: 1;"/></g><g class="text"/></g></g></g><g class="overplot"/><path class="xlines-above crisp" d="M0,0" style="fill: none;"/><path class="ylines-above crisp" d="M0,0" style="fill: none;"/><g class="overlines-above"/><g class="xaxislayer-above"><g class="xtick"><text text-anchor="middle" x="0" y="433" transform="translate(119.85,0)" style="font-family: 'Open Sans', verdana, arial, sans-serif; font-size: 12px; fill: rgb(42, 63, 95); fill-opacity: 1; white-space: pre;">0</text></g><g class="xtick"><text text-anchor="middle" x="0" y="433" transform="translate(212.26,0)" style="font-family: 'Open Sans', verdana, arial, sans-serif; font-size: 12px; fill: rgb(42, 63, 95); fill-opacity: 1; white-space: pre;">0.2</text></g><g class="xtick"><text text-anchor="middle" x="0" y="433" transform="translate(304.66999999999996,0)" style="font-family: 'Open Sans', verdana, arial, sans-serif; font-size: 12px; fill: rgb(42, 63, 95); fill-opacity: 1; white-space: pre;">0.4</text></g><g class="xtick"><text text-anchor="middle" x="0" y="433" transform="translate(397.08,0)" style="font-family: 'Open Sans', verdana, arial, sans-serif; font-size: 12px; fill: rgb(42, 63, 95); fill-opacity: 1; white-space: pre;">0.6</text></g><g class="xtick"><text text-anchor="middle" x="0" y="433" transform="translate(489.49,0)" style="font-family: 'Open Sans', verdana, arial, sans-serif; font-size: 12px; fill: rgb(42, 63, 95); fill-opacity: 1; white-space: pre;">0.8</text></g><g class="xtick"><text text-anchor="middle" x="0" y="433" transform="translate(581.9,0)" style="font-family: 'Open Sans', verdana, arial, sans-serif; font-size: 12px; fill: rgb(42, 63, 95); fill-opacity: 1; white-space: pre;">1</text></g></g><g class="yaxislayer-above"><g class="ytick"><text text-anchor="end" x="79" y="4.199999999999999" transform="translate(0,397.17)" style="font-family: 'Open Sans', verdana, arial, sans-serif; font-size: 12px; fill: rgb(42, 63, 95); fill-opacity: 1; white-space: pre;">0</text></g><g class="ytick"><text text-anchor="end" x="79" y="4.199999999999999" transform="translate(0,342.22)" style="font-family: 'Open Sans', verdana, arial, sans-serif; font-size: 12px; fill: rgb(42, 63, 95); fill-opacity: 1; white-space: pre;">0.2</text></g><g class="ytick"><text text-anchor="end" x="79" y="4.199999999999999" transform="translate(0,287.28)" style="font-family: 'Open Sans', verdana, arial, sans-serif; font-size: 12px; fill: rgb(42, 63, 95); fill-opacity: 1; white-space: pre;">0.4</text></g><g class="ytick"><text text-anchor="end" x="79" y="4.199999999999999" transform="translate(0,232.33)" style="font-family: 'Open Sans', verdana, arial, sans-serif; font-size: 12px; fill: rgb(42, 63, 95); fill-opacity: 1; white-space: pre;">0.6</text></g><g class="ytick"><text text-anchor="end" x="79" y="4.199999999999999" transform="translate(0,177.39)" style="font-family: 'Open Sans', verdana, arial, sans-serif; font-size: 12px; fill: rgb(42, 63, 95); fill-opacity: 1; white-space: pre;">0.8</text></g><g class="ytick"><text text-anchor="end" x="79" y="4.199999999999999" transform="translate(0,122.44)" style="font-family: 'Open Sans', verdana, arial, sans-serif; font-size: 12px; fill: rgb(42, 63, 95); fill-opacity: 1; white-space: pre;">1</text></g></g><g class="overaxes-above"/></g></g><g class="polarlayer"/><g class="ternarylayer"/><g class="geolayer"/><g class="funnelarealayer"/><g class="pielayer"/><g class="sunburstlayer"/><g class="glimages"/><defs id="topdefs-16f57e"><g class="clips"/></defs><g class="layer-above"><g class="imagelayer"/><g class="shapelayer"/></g><g class="infolayer"><g class="g-gtitle"/><g class="g-xtitle"/><g class="g-ytitle"/></g></svg>